<?xml version="1.0" encoding="UTF-8" standalone="no"?>
<!-- Created with Inkscape (http://www.inkscape.org/) -->

<svg
   width="55.026516mm"
   height="55.02652mm"
   viewBox="0 0 55.026512 55.02652"
   version="1.1"
   id="svg1"
   inkscape:version="1.3.2 (091e20e, 2023-11-25)"
   sodipodi:docname="favon.svg"
   xml:space="preserve"
   inkscape:export-filename="f2.pdf"
   inkscape:export-xdpi="96"
   inkscape:export-ydpi="96"
   xmlns:inkscape="http://www.inkscape.org/namespaces/inkscape"
   xmlns:sodipodi="http://sodipodi.sourceforge.net/DTD/sodipodi-0.dtd"
   xmlns="http://www.w3.org/2000/svg"
   xmlns:svg="http://www.w3.org/2000/svg"><sodipodi:namedview
     id="namedview1"
     pagecolor="#ffffff"
     bordercolor="#000000"
     borderopacity="0.25"
     inkscape:showpageshadow="2"
     inkscape:pageopacity="0.0"
     inkscape:pagecheckerboard="0"
     inkscape:deskcolor="#d1d1d1"
     inkscape:document-units="mm"
     inkscape:zoom="1.1971621"
     inkscape:cx="111.51372"
     inkscape:cy="119.44915"
     inkscape:window-width="1496"
     inkscape:window-height="905"
     inkscape:window-x="0"
     inkscape:window-y="34"
     inkscape:window-maximized="1"
     inkscape:current-layer="layer2"
     showguides="false"><sodipodi:guide
       position="-133.58054,409.41561"
       orientation="1,0"
       id="guide1"
       inkscape:locked="false" /><sodipodi:guide
       position="-83.880326,459.37074"
       orientation="0,-1"
       id="guide87"
       inkscape:locked="false" /><sodipodi:guide
       position="-191.60915,492.84237"
       orientation="1,0"
       id="guide113"
       inkscape:locked="false" /><sodipodi:guide
       position="-194.81449,473.23477"
       orientation="0,-1"
       id="guide2"
       inkscape:locked="false" /><sodipodi:guide
       position="-140.75114,329.34212"
       orientation="0,-1"
       id="guide91"
       inkscape:locked="false" /><sodipodi:guide
       position="-195.34593,382.91163"
       orientation="0,-1"
       id="guide92"
       inkscape:locked="false" /><sodipodi:guide
       position="-232.78442,515.97433"
       orientation="1,0"
       id="guide93"
       inkscape:locked="false" /><sodipodi:guide
       position="-41.269174,448.29597"
       orientation="1,0"
       id="guide94"
       inkscape:locked="false" /><sodipodi:guide
       position="-184.00703,508.56037"
       orientation="0,-1"
       id="guide95"
       inkscape:locked="false" /><sodipodi:guide
       position="-139.59265,408.21506"
       orientation="1,0"
       id="guide96"
       inkscape:locked="false" /><sodipodi:guide
       position="-144.91707,474.00648"
       orientation="1,0"
       id="guide128"
       inkscape:locked="false" /><sodipodi:guide
       position="-143.06714,447.68727"
       orientation="1,0"
       id="guide3"
       inkscape:locked="false" /><sodipodi:guide
       position="-276.70344,516.94129"
       orientation="0,-1"
       id="guide83"
       inkscape:locked="false" /><sodipodi:guide
       position="-15.968351,423.05288"
       orientation="0,-1"
       id="guide84"
       inkscape:locked="false" /><sodipodi:guide
       position="-123.11266,292.17806"
       orientation="1,0"
       id="guide85"
       inkscape:locked="false" /><sodipodi:guide
       position="-125.30595,402.48483"
       orientation="1,0"
       id="guide86"
       inkscape:locked="false" /><sodipodi:guide
       position="-94.557006,505.204"
       orientation="0,-1"
       id="guide88"
       inkscape:locked="false" /><sodipodi:guide
       position="-94.172276,548.62861"
       orientation="1,0"
       id="guide89"
       inkscape:locked="false" /><sodipodi:guide
       position="-240.09326,384.76209"
       orientation="1,0"
       id="guide167"
       inkscape:locked="false" /><sodipodi:guide
       position="-67.832625,264.87177"
       orientation="0,-1"
       id="guide168"
       inkscape:locked="false" /><sodipodi:guide
       position="-224.10465,288.16887"
       orientation="0,-1"
       id="guide169"
       inkscape:locked="false" /><sodipodi:guide
       position="-227.81438,523.51498"
       orientation="1,0"
       id="guide4"
       inkscape:locked="false" /><sodipodi:guide
       position="-90.734397,514.04094"
       orientation="0,-1"
       id="guide5"
       inkscape:locked="false" /><sodipodi:guide
       position="-118.11059,544.75288"
       orientation="0,-1"
       id="guide6"
       inkscape:locked="false" /><sodipodi:guide
       position="-90.611507,498.92244"
       orientation="0,-1"
       id="guide28"
       inkscape:locked="false" /><sodipodi:guide
       position="-167.24597,315.91386"
       orientation="0,-1"
       id="guide326"
       inkscape:locked="false" /><sodipodi:guide
       position="-79.964886,463.44672"
       orientation="0,-1"
       id="guide67"
       inkscape:locked="false" /><sodipodi:guide
       position="-158.74815,522.62007"
       orientation="1,0"
       id="guide7"
       inkscape:locked="false" /><sodipodi:guide
       position="-205.44723,519.40996"
       orientation="1,0"
       id="guide8"
       inkscape:locked="false" /></sodipodi:namedview><defs
     id="defs1"><linearGradient
       id="swatch17"
       gradientTransform="translate(-498.44151,-237.10109)"
       inkscape:swatch="solid"><stop
         style="stop-color:#000000;stop-opacity:1;"
         offset="0"
         id="stop17" /></linearGradient><linearGradient
       id="swatch42"
       inkscape:swatch="solid"
       gradientTransform="matrix(1306.0333,0,0,1306.0333,-1157752.3,-169117.17)"><stop
         style="stop-color:#f5f5f5;stop-opacity:1;"
         offset="0"
         id="stop42" /></linearGradient><linearGradient
       id="swatch313"
       inkscape:swatch="solid"><stop
         style="stop-color:#f5f5f5;stop-opacity:1;"
         offset="0"
         id="stop313" /></linearGradient><style
       type="text/css"
       id="style1">*{stroke-linejoin: round; stroke-linecap: butt}</style><style
       type="text/css"
       id="style1-1">*{stroke-linejoin: round; stroke-linecap: butt}</style><style
       type="text/css"
       id="style1-0">*{stroke-linejoin: round; stroke-linecap: butt}</style><style
       type="text/css"
       id="style1-4">*{stroke-linejoin: round; stroke-linecap: butt}</style><style
       type="text/css"
       id="style1-6">*{stroke-linejoin: round; stroke-linecap: butt}</style><style
       type="text/css"
       id="style1-3">*{stroke-linejoin: round; stroke-linecap: butt}</style><style
       type="text/css"
       id="style1-2">*{stroke-linejoin: round; stroke-linecap: butt}</style><style
       type="text/css"
       id="style1-8">*{stroke-linejoin: round; stroke-linecap: butt}</style><style
       type="text/css"
       id="style1-60">*{stroke-linejoin: round; stroke-linecap: butt}</style><style
       type="text/css"
       id="style1-84">*{stroke-linejoin: round; stroke-linecap: butt}</style><style
       type="text/css"
       id="style1-03">*{stroke-linejoin: round; stroke-linecap: butt}</style><style
       type="text/css"
       id="style1-04">*{stroke-linejoin: round; stroke-linecap: butt}</style><style
       type="text/css"
       id="style1-07">*{stroke-linejoin: round; stroke-linecap: butt}</style><style
       type="text/css"
       id="style1-29">*{stroke-linejoin: round; stroke-linecap: butt}</style><style
       type="text/css"
       id="style1-46">*{stroke-linejoin: round; stroke-linecap: butt}</style><style
       type="text/css"
       id="style1-7">*{stroke-linejoin: round; stroke-linecap: butt}</style><style
       type="text/css"
       id="style1-32">*{stroke-linejoin: round; stroke-linecap: butt}</style><style
       type="text/css"
       id="style1-16">*{stroke-linejoin: round; stroke-linecap: butt}</style><style
       type="text/css"
       id="style1-47">*{stroke-linejoin: round; stroke-linecap: butt}</style><style
       type="text/css"
       id="style1-71">*{stroke-linejoin: round; stroke-linecap: butt}</style><style
       type="text/css"
       id="style1-5">*{stroke-linejoin: round; stroke-linecap: butt}</style><style
       type="text/css"
       id="style1-603">*{stroke-linejoin: round; stroke-linecap: butt}</style><style
       type="text/css"
       id="style1-50">*{stroke-linejoin: round; stroke-linecap: butt}</style><style
       type="text/css"
       id="style1-62">*{stroke-linejoin: round; stroke-linecap: butt}</style><style
       type="text/css"
       id="style1-600">*{stroke-linejoin: round; stroke-linecap: butt}</style><style
       type="text/css"
       id="style1-01">*{stroke-linejoin: round; stroke-linecap: butt}</style><style
       type="text/css"
       id="style1-18">*{stroke-linejoin: round; stroke-linecap: butt}</style><style
       type="text/css"
       id="style1-622">*{stroke-linejoin: round; stroke-linecap: butt}</style><style
       type="text/css"
       id="style1-9">*{stroke-linejoin: round; stroke-linecap: butt}</style><style
       type="text/css"
       id="style1-93">*{stroke-linejoin: round; stroke-linecap: butt}</style><style
       type="text/css"
       id="style1-938">*{stroke-linejoin: round; stroke-linecap: butt}</style><style
       type="text/css"
       id="style1-188">*{stroke-linejoin: round; stroke-linecap: butt}</style><style
       type="text/css"
       id="style1-20">*{stroke-linejoin: round; stroke-linecap: butt}</style><style
       type="text/css"
       id="style1-72">*{stroke-linejoin: round; stroke-linecap: butt}</style><style
       type="text/css"
       id="style1-26">*{stroke-linejoin: round; stroke-linecap: butt}</style><style
       type="text/css"
       id="style1-847">*{stroke-linejoin: round; stroke-linecap: butt}</style><style
       type="text/css"
       id="style1-56">*{stroke-linejoin: round; stroke-linecap: butt}</style><style
       type="text/css"
       id="style1-321">*{stroke-linejoin: round; stroke-linecap: butt}</style><path
       id="DejaVuSans-30-10"
       d="m 2034,4250 q -487,0 -733,-480 -245,-479 -245,-1442 0,-959 245,-1439 246,-480 733,-480 491,0 736,480 246,480 246,1439 0,963 -246,1442 -245,480 -736,480 z m 0,500 q 785,0 1199,-621 414,-620 414,-1801 0,-1178 -414,-1799 -414,-620 -1199,-620 -784,0 -1198,620 -414,621 -414,1799 0,1181 414,1801 414,621 1198,621 z"
       transform="scale(0.015625)" /><path
       id="DejaVuSans-32-415"
       d="M 1228,531 H 3431 V 0 H 469 v 531 q 359,372 979,998 621,627 780,809 303,340 423,576 121,236 121,464 0,372 -261,606 -261,235 -680,235 -297,0 -627,-103 -329,-103 -704,-313 v 638 q 381,153 712,231 332,78 607,78 725,0 1156,-363 431,-362 431,-968 0,-288 -108,-546 -107,-257 -392,-607 -78,-91 -497,-524 Q 1991,1309 1228,531 Z"
       transform="scale(0.015625)" /><path
       id="DejaVuSans-34-850"
       d="M 2419,4116 825,1625 h 1594 z m -166,550 h 794 V 1625 h 666 V 1100 H 3047 V 0 H 2419 V 1100 H 313 v 609 z"
       transform="scale(0.015625)" /><path
       id="DejaVuSans-31-84"
       d="M 794,531 H 1825 V 4091 L 703,3866 v 575 l 1116,225 h 631 V 531 H 3481 V 0 H 794 Z"
       transform="scale(0.015625)" /><path
       id="DejaVuSans-33-80"
       d="m 2597,2516 q 453,-97 707,-404 255,-306 255,-756 0,-690 -475,-1069 -475,-378 -1350,-378 -293,0 -604,58 -311,58 -642,174 v 609 q 262,-153 574,-231 313,-78 654,-78 593,0 904,234 311,234 311,681 0,413 -289,645 -289,233 -804,233 h -544 v 519 h 569 q 465,0 712,186 247,186 247,536 0,359 -255,551 -254,193 -729,193 -260,0 -557,-57 -297,-56 -653,-174 v 562 q 360,100 674,150 314,50 592,50 719,0 1137,-327 419,-326 419,-882 0,-388 -222,-655 -222,-267 -631,-370 z"
       transform="scale(0.015625)" /><path
       id="DejaVuSans-69-34"
       d="m 603,3500 h 575 V 0 H 603 Z m 0,1363 h 575 V 4134 H 603 Z"
       transform="scale(0.015625)" /><path
       id="DejaVuSans-6d-790"
       d="m 3328,2828 q 216,388 516,572 300,184 706,184 547,0 844,-383 297,-382 297,-1088 V 0 h -578 v 2094 q 0,503 -179,746 -178,244 -543,244 -447,0 -707,-297 -259,-296 -259,-809 V 0 h -578 v 2094 q 0,506 -178,748 -178,242 -550,242 -441,0 -701,-298 -259,-298 -259,-808 V 0 H 581 v 3500 h 578 v -544 q 197,322 472,475 275,153 653,153 382,0 649,-194 267,-193 395,-562 z"
       transform="scale(0.015625)" /><path
       id="DejaVuSans-61-730"
       d="m 2194,1759 q -697,0 -966,-159 -269,-159 -269,-544 0,-306 202,-486 202,-179 548,-179 479,0 768,339 289,339 289,901 v 128 z m 1147,238 V 0 H 2766 V 531 Q 2569,213 2275,61 1981,-91 1556,-91 q -537,0 -855,302 -317,302 -317,808 0,590 395,890 396,300 1180,300 h 807 v 57 q 0,397 -261,614 -261,217 -733,217 -300,0 -585,-72 -284,-72 -546,-216 v 532 q 315,122 612,182 297,61 578,61 760,0 1135,-394 375,-393 375,-1193 z"
       transform="scale(0.015625)" /><path
       id="DejaVuSans-67-15"
       d="m 2906,1791 q 0,625 -258,968 -257,344 -723,344 -462,0 -720,-344 -258,-343 -258,-968 0,-622 258,-966 258,-344 720,-344 466,0 723,344 258,344 258,966 z M 3481,434 q 0,-893 -397,-1329 -396,-436 -1215,-436 -303,0 -572,45 -269,45 -522,139 v 559 q 253,-137 500,-202 247,-66 503,-66 566,0 847,295 281,295 281,892 V 616 Q 2728,306 2450,153 2172,0 1784,0 1141,0 747,490 353,981 353,1791 q 0,812 394,1302 394,491 1037,491 388,0 666,-153 278,-153 456,-462 v 531 h 575 z"
       transform="scale(0.015625)" /><path
       id="DejaVuSans-65-85"
       d="M 3597,1894 V 1613 H 953 q 38,-594 358,-905 320,-311 892,-311 331,0 642,81 311,81 618,244 V 178 Q 3153,47 2828,-22 2503,-91 2169,-91 1331,-91 842,396 353,884 353,1716 q 0,859 464,1363 464,505 1252,505 706,0 1117,-455 411,-454 411,-1235 z m -575,169 q -6,471 -264,752 -258,282 -683,282 -481,0 -770,-272 -289,-272 -333,-766 z"
       transform="scale(0.015625)" /><path
       id="DejaVuSans-6e-99"
       d="M 3513,2113 V 0 h -575 v 2094 q 0,497 -194,743 -194,247 -581,247 -466,0 -735,-297 -269,-296 -269,-809 V 0 H 581 v 3500 h 578 v -544 q 207,316 486,472 280,156 646,156 603,0 912,-373 310,-373 310,-1098 z"
       transform="scale(0.015625)" /><path
       id="DejaVuSans-74-738"
       d="M 1172,4494 V 3500 H 2356 V 3053 H 1172 V 1153 q 0,-428 117,-550 117,-122 477,-122 h 590 V 0 H 1766 Q 1100,0 847,248 594,497 594,1153 V 3053 H 172 v 447 h 422 v 994 z"
       transform="scale(0.015625)" /><path
       id="DejaVuSans-66-10"
       d="m 2375,4863 v -479 h -550 q -309,0 -430,-125 -120,-125 -120,-450 v -309 h 947 V 3053 H 1275 V 0 H 697 V 3053 H 147 v 447 h 550 v 244 q 0,584 272,851 272,268 862,268 z"
       transform="scale(0.015625)" /><path
       id="DejaVuSans-64-25"
       d="m 2906,2969 v 1894 h 575 V 0 H 2906 V 525 Q 2725,213 2448,61 2172,-91 1784,-91 1150,-91 751,415 353,922 353,1747 q 0,825 398,1331 399,506 1033,506 388,0 664,-152 277,-151 458,-463 z M 947,1747 q 0,-634 261,-995 261,-361 717,-361 456,0 718,361 263,361 263,995 0,634 -263,995 -262,361 -718,361 -456,0 -717,-361 -261,-361 -261,-995 z"
       transform="scale(0.015625)" /><path
       id="DejaVuSans-6b-27"
       d="m 581,4863 h 578 V 1991 l 1716,1509 h 734 L 1753,1863 3688,0 H 2938 L 1159,1709 V 0 H 581 Z"
       transform="scale(0.015625)" /><path
       id="DejaVuSans-63-50"
       d="m 3122,3366 v -538 q -244,135 -489,202 -245,67 -495,67 -560,0 -870,-355 -309,-354 -309,-995 0,-641 309,-996 310,-354 870,-354 250,0 495,67 245,67 489,202 V 134 Q 2881,22 2623,-34 2366,-91 2075,-91 1284,-91 818,406 353,903 353,1747 q 0,856 470,1346 471,491 1290,491 265,0 518,-55 253,-54 491,-163 z"
       transform="scale(0.015625)" /><path
       id="DejaVuSans-73-804"
       d="m 2834,3397 v -544 q -243,125 -506,187 -262,63 -544,63 -428,0 -642,-131 -214,-131 -214,-394 0,-200 153,-314 153,-114 616,-217 l 197,-44 q 612,-131 870,-370 258,-239 258,-667 0,-488 -386,-773 Q 2250,-91 1575,-91 1294,-91 989,-36 684,19 347,128 v 594 q 319,-166 628,-249 309,-82 613,-82 406,0 624,139 219,139 219,392 0,234 -158,359 -157,125 -692,241 l -200,47 q -534,112 -772,345 -237,233 -237,639 0,494 350,762 350,269 994,269 318,0 599,-47 282,-46 519,-140 z"
       transform="scale(0.015625)" /><path
       id="DejaVuSans-68-14"
       d="M 3513,2113 V 0 h -575 v 2094 q 0,497 -194,743 -194,247 -581,247 -466,0 -735,-297 -269,-296 -269,-809 V 0 H 581 v 4863 h 578 V 2956 q 207,316 486,472 280,156 646,156 603,0 912,-373 310,-373 310,-1098 z"
       transform="scale(0.015625)" /><path
       id="DejaVuSans-76-22"
       d="M 191,3500 H 800 L 1894,563 2988,3500 h 609 L 2284,0 h -781 z"
       transform="scale(0.015625)" /><path
       id="DejaVuSans-35-85"
       d="M 691,4666 H 3169 V 4134 H 1269 V 2991 q 137,47 274,70 138,23 276,23 781,0 1237,-428 457,-428 457,-1159 Q 3513,744 3044,326 2575,-91 1722,-91 1428,-91 1123,-41 819,9 494,109 v 635 q 281,-153 581,-228 300,-75 634,-75 541,0 856,284 316,284 316,772 0,487 -316,771 -315,285 -856,285 -253,0 -505,-56 -251,-56 -513,-175 z"
       transform="scale(0.015625)" /><path
       id="DejaVuSans-72-2"
       d="m 2631,2963 q -97,56 -211,82 -114,27 -251,27 -488,0 -749,-317 -261,-317 -261,-911 V 0 H 581 v 3500 h 578 v -544 q 182,319 472,473 291,155 707,155 59,0 131,-8 72,-7 159,-23 z"
       transform="scale(0.015625)" /><path
       id="DejaVuSans-6f-770"
       d="m 1959,3097 q -462,0 -731,-361 -269,-361 -269,-989 0,-628 267,-989 268,-361 733,-361 460,0 728,362 269,363 269,988 0,622 -269,986 -268,364 -728,364 z m 0,487 q 750,0 1178,-488 429,-487 429,-1349 Q 3566,888 3137,398 2709,-91 1959,-91 1206,-91 779,398 353,888 353,1747 q 0,862 426,1349 427,488 1180,488 z"
       transform="scale(0.015625)" /><path
       id="DejaVuSans-6a-9"
       d="m 603,3500 h 575 V -63 q 0,-668 -255,-968 -254,-300 -820,-300 h -219 v 487 H 38 q 328,0 446,152 119,151 119,629 z m 0,1363 h 575 V 4134 H 603 Z"
       transform="scale(0.015625)" /><style
       type="text/css"
       id="style1-77">*{stroke-linejoin: round; stroke-linecap: butt}</style><clipPath
       clipPathUnits="userSpaceOnUse"
       id="clipPath308-5"><rect
         style="fill:#000000;fill-rule:evenodd;stroke:#000000;stroke-width:0.2;stroke-dasharray:none;stroke-opacity:1"
         id="rect309-9"
         width="113.66277"
         height="94.25692"
         x="98.415314"
         y="314.37457" /></clipPath><clipPath
       id="pbc112ead04-7"><rect
         x="52.160938"
         y="22.318125"
         width="334.79999"
         height="332.64001"
         id="rect166-2-5" /></clipPath><inkscape:path-effect
       effect="bspline"
       id="path-effect309-7"
       is_visible="true"
       lpeversion="1.3"
       weight="33.333333"
       steps="2"
       helper_size="0"
       apply_no_weight="true"
       apply_with_weight="true"
       only_selected="false"
       uniform="false" /><inkscape:path-effect
       effect="bspline"
       id="path-effect309-3-5"
       is_visible="true"
       lpeversion="1.3"
       weight="33.333333"
       steps="2"
       helper_size="0"
       apply_no_weight="true"
       apply_with_weight="true"
       only_selected="false"
       uniform="false" /><style
       type="text/css"
       id="style1-42">*{stroke-linejoin: round; stroke-linecap: butt}</style><style
       type="text/css"
       id="style1-19">*{stroke-linejoin: round; stroke-linecap: butt}</style><style
       type="text/css"
       id="style1-9380">*{stroke-linejoin: round; stroke-linecap: butt}</style><style
       type="text/css"
       id="style1-74">*{stroke-linejoin: round; stroke-linecap: butt}</style><style
       type="text/css"
       id="style1-96">*{stroke-linejoin: round; stroke-linecap: butt}</style><style
       type="text/css"
       id="style1-78">*{stroke-linejoin: round; stroke-linecap: butt}</style><style
       type="text/css"
       id="style1-604">*{stroke-linejoin: round; stroke-linecap: butt}</style><style
       type="text/css"
       id="style1-960">*{stroke-linejoin: round; stroke-linecap: butt}</style><style
       type="text/css"
       id="style1-05">*{stroke-linejoin: round; stroke-linecap: butt}</style><style
       type="text/css"
       id="style1-87">*{stroke-linejoin: round; stroke-linecap: butt}</style><style
       type="text/css"
       id="style1-48">*{stroke-linejoin: round; stroke-linecap: butt}</style><style
       type="text/css"
       id="style1-36">*{stroke-linejoin: round; stroke-linecap: butt}</style><style
       type="text/css"
       id="style1-81">*{stroke-linejoin: round; stroke-linecap: butt}</style><style
       type="text/css"
       id="style1-25">*{stroke-linejoin: round; stroke-linecap: butt}</style><style
       type="text/css"
       id="style1-61">*{stroke-linejoin: round; stroke-linecap: butt}</style></defs><g
     inkscape:groupmode="layer"
     id="layer2"
     inkscape:label="Layer 2"
     transform="translate(-241.9437,-176.43691)"><path
       style="fill:#3385bb;fill-opacity:1;fill-rule:evenodd;stroke:#3385bb;stroke-width:8.29804598;stroke-linecap:butt;stroke-linejoin:round;stroke-dasharray:none;stroke-dashoffset:0;stroke-opacity:1"
       d="m 114.39516,269.62743 c 18.96619,4.32863 37.93238,8.65725 56.89857,12.98588"
       id="path309-4"
       inkscape:path-effect="#path-effect309-7"
       inkscape:original-d="m 114.39516,269.62743 c 18.96619,4.32863 37.93238,8.65724 56.89857,12.98588"
       transform="matrix(0.96408239,0,0,0.96408239,131.74314,-43.448926)" /><path
       style="fill:#3385bb;fill-opacity:1;fill-rule:evenodd;stroke:#c42b4b;stroke-width:8.29804598;stroke-linecap:butt;stroke-linejoin:round;stroke-dasharray:none;stroke-dashoffset:0;stroke-opacity:1"
       d="m 114.39516,269.62743 c 18.96619,4.32863 37.93238,8.65725 56.89857,12.98588"
       id="path309-5-7"
       inkscape:path-effect="#path-effect309-3-5"
       inkscape:original-d="m 114.39516,269.62743 c 18.96619,4.32863 37.93238,8.65724 56.89857,12.98588"
       transform="matrix(0,-0.96408239,0.96408239,0,-8.619113,341.77085)" /></g></svg>
